<?xml version="1.0" encoding="iso-8859-1"?>
<!-- Generator: Adobe Illustrator 26.0.0, SVG Export Plug-In . SVG Version: 6.00 Build 0)  -->
<svg version="1.1" id="Laag_1" xmlns="http://www.w3.org/2000/svg" xmlns:xlink="http://www.w3.org/1999/xlink" x="0px" y="0px"
	 viewBox="0 0 75 65" style="enable-background:new 0 0 75 65;" xml:space="preserve">
<g>
	<path style="fill:#865C50;" d="M49.943,48.127l8-6.3l-0.2-12.1l3.8-5.8c0,0-0.4-3.5-3.2-4.7c-2.9-1.3-6,1-6,1s-7.6-8.6-19.6-6.8
		c-11.1,1.5-16.2,8.3-18.3,13.2c-1.7,3.9-1,10.9-1,10.9l6.2,6.1c0,0,16.2,4.7,18.5,5.1S49.943,48.127,49.943,48.127z"/>
	<path style="fill:#6C4D42;" d="M35.943,42.427c0,0,8,4.3,13.6,1.8s7.1-7.6,6.7-9.9c-0.3-2.4-0.9-4.5-0.9-4.5s2.4-1.8,3.7-3.7
		s1.4-5.1,1.4-5.1s2.2,2.9,1.6,7.5c-0.5,3.6-2.7,5.4-2.7,5.4s3.1,2.9,1.6,8.4c-1.3,5.2-6,6.6-6,6.6s0.5,1.1,0.4,2.1
		s-0.5,1.8-0.5,1.8s-15.6,0.8-26.9-3.5c-11.8-4.6-14.3-9.7-14.3-9.7s-0.3-3.1-0.2-2.8c0.1,0.2,5.5,5.9,12.4,6.9
		S35.943,42.527,35.943,42.427z"/>
	<path style="fill:#6C4D42;" d="M28.043,31.427c-0.9-0.8-2.1-0.2-2.6,0.5c-0.5,0.6-0.8,1.9,0,2.6c1,0.8,2.1,0.1,2.5-0.5
		C28.443,33.327,28.743,32.027,28.043,31.427z"/>
	<path style="fill:#6C4D42;" d="M29.543,21.627c-0.8,1.2,0,2.3,0.6,2.6c0.8,0.4,1.8-0.1,2.3-1s0.5-1.8-0.5-2.4
		C31.043,20.327,30.043,20.927,29.543,21.627z"/>
	<path style="fill:#6C4D42;" d="M42.043,31.927c-1.1-0.6-1.9,0.3-2.3,1s-0.6,1.9,0.6,2.5c1.2,0.6,2.1-0.5,2.3-1
		C43.043,33.627,43.043,32.527,42.043,31.927z"/>
</g>
</svg>
