<?xml version="1.0" encoding="iso-8859-1"?>
<!-- Generator: Adobe Illustrator 26.0.0, SVG Export Plug-In . SVG Version: 6.00 Build 0)  -->
<svg version="1.1" id="Laag_1" xmlns="http://www.w3.org/2000/svg" xmlns:xlink="http://www.w3.org/1999/xlink" x="0px" y="0px"
	 viewBox="0 0 75 65" style="enable-background:new 0 0 75 65;" xml:space="preserve">
<g>
	<path style="fill:#FEA9A6;" d="M14.443,45.727l-4.7,0.3c0,0-1.3-3.4,0.4-5.4c1.7-2,4.4-1.7,4.4-1.7s-0.9-8.4,4.1-15.7
		s12.4-12,24.2-9.3c12.6,2.9,16.4,15.2,16.4,15.2l-2.3,12.1l-22.4,9.8L14.443,45.727z"/>
	<path style="fill:#FE7C84;" d="M27.043,46.927c0,0,3.8,1.1,7.3-1.2c2.3-1.5,2.8-3.2,2.8-3.2s7.5,1,12.8-2.8s8.7-12.6,8.7-12.6
		s1.7,3.5,2.3,8.3c0.4,3.5-0.2,5.7-0.2,5.7s3-0.8,4.6,3c1.6,3.6-0.3,6.3-0.3,6.3l-35.8,3.6L27.043,46.927z"/>
	<path style="fill:#FE7C84;" d="M46.743,29.127c-0.8-0.2-1.5,0.6-1.6,1.3c-0.1,0.7,0.1,1.6,1.1,1.9c1,0.2,1.4-0.8,1.5-1.6
		C47.843,29.927,47.443,29.327,46.743,29.127z"/>
	<path style="fill:#FE7C84;" d="M29.943,28.627c-0.9-0.2-1.6,0.6-1.7,1.4c-0.1,0.8,0,1.8,1.1,2c1.2,0.1,1.7-0.9,1.7-1.7
		C31.043,29.527,30.743,28.927,29.943,28.627z"/>
	<path style="fill:#FE7C84;" d="M53.443,23.327c-0.8-0.4-1.4,0.1-1.8,0.5s-0.6,1.6,0.1,2c0.8,0.5,1.6,0,1.9-0.6
		C54.043,24.527,54.043,23.727,53.443,23.327z"/>
	<path style="fill:#FE7C84;" d="M34.243,21.427c-0.6-0.6-1.4-0.4-2,0.3c-0.5,0.7-0.5,1.6,0,2.1c0.7,0.6,1.8,0,2.1-0.6
		C34.743,22.527,34.643,21.827,34.243,21.427z"/>
	<path style="fill:#FE7C84;" d="M24.043,33.327c-0.7-0.5-1.6-0.1-2,0.7c-0.4,0.8-0.2,1.7,0.4,2c0.9,0.5,1.9-0.3,2.1-1
		C24.743,34.427,24.543,33.627,24.043,33.327z"/>
</g>
</svg>
