<?xml version="1.0" encoding="iso-8859-1"?>
<!-- Generator: Adobe Illustrator 26.0.0, SVG Export Plug-In . SVG Version: 6.00 Build 0)  -->
<svg version="1.1" id="Laag_1" xmlns="http://www.w3.org/2000/svg" xmlns:xlink="http://www.w3.org/1999/xlink" x="0px" y="0px"
	 viewBox="0 0 75 65" style="enable-background:new 0 0 75 65;" xml:space="preserve">
<g>
	<path style="fill:#FFEBCA;" d="M23.043,20.027c0-0.3,6.3-6.5,15.7-5.7c11.5,0.9,15.6,9.1,15.6,9.1l-0.7,9.5l-8,10.2
		c0,0-10.2,3-10.5,3s-14.1,1.2-14.1,1.2l-2.8-23.2C18.243,24.127,23.043,20.027,23.043,20.027z"/>
	<path style="fill:#EAC183;" d="M22.643,45.327c0.1,0.2,16.3,0.1,24.3-8.7c8.1-8.9,6.2-15.3,6.2-15.1c0.1,0.2,2.2,2.5,3.4,7.5
		c0.7,3.1,0.5,6.1,0.5,6.1s-3.4,7.5-14.1,11.7c-12.8,4.9-24.8,3.7-24.8,3.7L22.643,45.327z"/>
	<path style="fill:#EAC183;" d="M41.543,28.627c-0.8-0.5-1.7,0-2.2,0.8c-0.6,0.8-0.4,1.8,0.4,2.3c0.8,0.4,1.7-0.1,2.2-1
		C42.243,30.127,42.443,29.127,41.543,28.627z"/>
</g>
</svg>
