<?xml version="1.0" encoding="iso-8859-1"?>
<!-- Generator: Adobe Illustrator 26.0.0, SVG Export Plug-In . SVG Version: 6.00 Build 0)  -->
<svg version="1.1" id="Laag_1" xmlns="http://www.w3.org/2000/svg" xmlns:xlink="http://www.w3.org/1999/xlink" x="0px" y="0px"
	 viewBox="0 0 81.7 82.423" style="enable-background:new 0 0 81.7 82.423;" xml:space="preserve">
<g>
	
		<linearGradient id="Path_213_00000085225764969355153530000015437700746685866921_" gradientUnits="userSpaceOnUse" x1="-156.848" y1="-593.2738" x2="-156.9066" y2="-592.7501" gradientTransform="matrix(28.674 0 0 28.6741 4527.2021 17028.791)">
		<stop  offset="0" style="stop-color:#FEECD2"/>
		<stop  offset="1" style="stop-color:#CDAC82"/>
	</linearGradient>
	<path id="Path_213" style="fill:url(#Path_213_00000085225764969355153530000015437700746685866921_);" d="M43.294,23.891
		c0,7.865-6.4,14.236-14.3,14.236s-14.3-6.371-14.3-14.236c0-7.865,6.4-14.236,14.3-14.236
		C36.894,9.555,43.294,15.927,43.294,23.891L43.294,23.891z"/>
	
		<linearGradient id="Path_214_00000034055090691529887240000013790220997361053884_" gradientUnits="userSpaceOnUse" x1="-156.8447" y1="-593.272" x2="-156.9034" y2="-592.7484" gradientTransform="matrix(28.6721 0 0 28.672 4550.8086 17027.5215)">
		<stop  offset="0" style="stop-color:#F08DAA"/>
		<stop  offset="1" style="stop-color:#D53F6F"/>
	</linearGradient>
	<path id="Path_214" style="fill:url(#Path_214_00000034055090691529887240000013790220997361053884_);" d="M67.294,23.891
		c0,7.865-6.4,14.236-14.3,14.236s-14.3-6.371-14.3-14.236c0-7.865,6.4-14.236,14.3-14.236
		C60.894,9.555,67.294,15.927,67.294,23.891"/>
	
		<linearGradient id="Path_215_00000170244524697905236400000013799742403851009413_" gradientUnits="userSpaceOnUse" x1="1101.256" y1="-552.3082" x2="1139.328" y2="-552.3082" gradientTransform="matrix(1 0 0 -1 -1079.406 -532.7975)">
		<stop  offset="0" style="stop-color:#FEECD2"/>
		<stop  offset="0" style="stop-color:#CDAC82"/>
		<stop  offset="1" style="stop-color:#A46000"/>
	</linearGradient>
	<path id="Path_215" style="fill:url(#Path_215_00000170244524697905236400000013799742403851009413_);" d="M59.85,19.511
		c0,10.453-8.5,18.915-19,18.915s-19-8.462-19-18.915s8.5-18.915,19-18.915S59.85,9.058,59.85,19.511L59.85,19.511z"/>
</g>
<g id="ice_cream" transform="translate(-1079.406 -617.989)">
	
		<linearGradient id="Path_216_00000051371506565390462040000003451013875454995856_" gradientUnits="userSpaceOnUse" x1="903.5335" y1="14.3387" x2="904.1276" y2="14.4708" gradientTransform="matrix(48.7261 0 0 51.103 -42924.207 -65.2261)">
		<stop  offset="0" style="stop-color:#F9A973"/>
		<stop  offset="1" style="stop-color:#E28B3D"/>
	</linearGradient>
	<path id="Path_216" style="fill:url(#Path_216_00000051371506565390462040000003451013875454995856_);" d="M1120.4,651.696
		c-11.6,0-21.4-1-24.4-2.5l18.8,45.4c1.3,3.1,3.7,5.7,5.5,5.7s4.2-2.5,5.5-5.7l19-45.4
		C1141.4,650.696,1131.8,651.696,1120.4,651.696z"/>
</g>
</svg>
