<?xml version="1.0" encoding="iso-8859-1"?>
<!-- Generator: Adobe Illustrator 26.0.0, SVG Export Plug-In . SVG Version: 6.00 Build 0)  -->
<svg version="1.1" id="Laag_1" xmlns="http://www.w3.org/2000/svg" xmlns:xlink="http://www.w3.org/1999/xlink" x="0px" y="0px"
	 viewBox="0 0 85 85" style="enable-background:new 0 0 85 85;" xml:space="preserve">
<g>
	<path style="fill:#FEA9A6;" d="M20.9,37.927l-4.7,0.3c0,0-1.3-3.4,0.4-5.4s4.4-1.7,4.4-1.7s-0.9-8.4,4.1-15.7s12.4-12,24.2-9.3
		c12.6,2.9,16.4,15.2,16.4,15.2l-2.3,12.1l-22.4,9.8L20.9,37.927z"/>
	<path style="fill:#FE7C84;" d="M33.5,39.127c0,0,3.8,1.1,7.3-1.2c2.3-1.5,2.8-3.2,2.8-3.2s7.5,1,12.8-2.8s8.7-12.6,8.7-12.6
		s1.7,3.5,2.3,8.3c0.4,3.5-0.2,5.7-0.2,5.7s3-0.8,4.6,3c1.6,3.6-0.3,6.3-0.3,6.3l-35.8,3.6L33.5,39.127z"/>
	<path style="fill:#FE7C84;" d="M53.2,21.327c-0.8-0.2-1.5,0.6-1.6,1.3c-0.1,0.7,0.1,1.6,1.1,1.9c1,0.2,1.4-0.8,1.5-1.6
		C54.3,22.127,53.9,21.527,53.2,21.327z"/>
	<path style="fill:#FE7C84;" d="M36.4,20.827c-0.9-0.2-1.6,0.6-1.7,1.4c-0.1,0.8,0,1.8,1.1,2c1.2,0.1,1.7-0.9,1.7-1.7
		C37.5,21.727,37.2,21.127,36.4,20.827z"/>
	<path style="fill:#FE7C84;" d="M59.9,15.527c-0.8-0.4-1.4,0.1-1.8,0.5c-0.4,0.4-0.6,1.6,0.1,2c0.8,0.5,1.6,0,1.9-0.6
		C60.5,16.727,60.5,15.927,59.9,15.527z"/>
	<path style="fill:#FE7C84;" d="M40.7,13.627c-0.6-0.6-1.4-0.4-2,0.3c-0.5,0.7-0.5,1.6,0,2.1c0.7,0.6,1.8,0,2.1-0.6
		C41.2,14.727,41.1,14.027,40.7,13.627z"/>
	<path style="fill:#FFEBCA;" d="M46.8,44.127c0-0.3,6.3-6.5,15.7-5.7c11.5,0.9,15.6,9.1,15.6,9.1l-0.7,9.5l-8,10.2
		c0,0-10.2,3-10.5,3s-14.1,1.2-14.1,1.2l-2.8-23.2C42,48.227,46.8,44.127,46.8,44.127z"/>
	<path style="fill:#FE7C84;" d="M30.5,25.527c-0.7-0.5-1.6-0.1-2,0.7c-0.4,0.8-0.2,1.7,0.4,2c0.9,0.5,1.9-0.3,2.1-1
		C31.2,26.627,31,25.827,30.5,25.527z"/>
	<path style="fill:#EAC183;" d="M46.4,69.427c0.1,0.2,16.3,0.1,24.3-8.7c8.1-8.9,6.2-15.3,6.2-15.1c0.1,0.2,2.2,2.5,3.4,7.5
		c0.7,3.1,0.5,6.1,0.5,6.1s-3.4,7.5-14.1,11.7c-12.8,4.9-24.8,3.7-24.8,3.7L46.4,69.427z"/>
	<path style="fill:#EAC183;" d="M65.3,52.727c-0.8-0.5-1.7,0-2.2,0.8c-0.6,0.8-0.4,1.8,0.4,2.3c0.8,0.4,1.7-0.1,2.2-1
		C66,54.227,66.2,53.227,65.3,52.727z"/>
	<path style="fill:#865C50;" d="M41,69.927l8-6.3l-0.2-12.1l3.8-5.8c0,0-0.4-3.5-3.2-4.7c-2.9-1.3-6,1-6,1s-7.6-8.6-19.6-6.8
		c-11.1,1.5-16.2,8.3-18.3,13.2c-1.7,3.9-1,10.9-1,10.9l6.2,6.1c0,0,16.2,4.7,18.5,5.1S41,69.927,41,69.927z"/>
	<path style="fill:#6C4D42;" d="M27,64.227c0,0,8,4.3,13.6,1.8s7.1-7.6,6.7-9.9c-0.3-2.4-0.9-4.5-0.9-4.5s2.4-1.8,3.7-3.7
		s1.4-5.1,1.4-5.1s2.2,2.9,1.6,7.5c-0.5,3.6-2.7,5.4-2.7,5.4s3.1,2.9,1.6,8.4c-1.3,5.2-6,6.6-6,6.6s0.5,1.1,0.4,2.1
		s-0.5,1.8-0.5,1.8s-15.6,0.8-26.9-3.5c-11.8-4.6-14.3-9.7-14.3-9.7s-0.3-3.1-0.2-2.8c0.1,0.2,5.5,5.9,12.4,6.9S27,64.327,27,64.227
		z"/>
	<path style="fill:#6C4D42;" d="M19.1,53.227c-0.9-0.8-2.1-0.2-2.6,0.5c-0.5,0.6-0.8,1.9,0,2.6c1,0.8,2.1,0.1,2.5-0.5
		C19.5,55.127,19.8,53.827,19.1,53.227z"/>
	<path style="fill:#6C4D42;" d="M20.6,43.427c-0.8,1.2,0,2.3,0.6,2.6c0.8,0.4,1.8-0.1,2.3-1s0.5-1.8-0.5-2.4
		C22.1,42.127,21.1,42.727,20.6,43.427z"/>
	<path style="fill:#6C4D42;" d="M33.1,53.727c-1.1-0.6-1.9,0.3-2.3,1s-0.6,1.9,0.6,2.5c1.2,0.6,2.1-0.5,2.3-1
		C34.1,55.427,34.1,54.327,33.1,53.727z"/>
</g>
</svg>
