<?xml version="1.0" encoding="iso-8859-1"?>
<!-- Generator: Adobe Illustrator 26.0.0, SVG Export Plug-In . SVG Version: 6.00 Build 0)  -->
<svg version="1.1" id="Laag_1" xmlns="http://www.w3.org/2000/svg" xmlns:xlink="http://www.w3.org/1999/xlink" x="0px" y="0px"
	 viewBox="0 0 128 128" style="enable-background:new 0 0 128 128;" xml:space="preserve">
<path style="fill:#6FA3B0;" d="M34.51,39.567l-9.714,5.579c-0.062,0.035-0.11,0.091-0.136,0.157l-4.133,10.531
	c-0.017,0.044-0.025,0.084-0.021,0.132c0.088,1.103,1.329,16.01,4.795,20.535c5.2,6.6,11.1,13.3,31.2,17.7c5.8,1.3,5.3,4.3,0.5,5.9
	c-2.956,0.953-10.093,1.089-10.751,1.099c-0.036,0.001-0.068,0.008-0.102,0.02c-8.152,2.994-9.347,6.086-9.347,8.681
	c0,2.6,0.9,9.2,15.1,12.9c11.1,3,26.2,1.5,32.7-2.6c6.6-4.1,7.1-8.8,7-10.6c-0.1-1.8-1.2-5.1-4.6-6.8c-1.5-0.8-5.8,1-9.2,0.1
	c-3.744-1.005-6.655-4.344-7.131-4.916c-0.047-0.057-0.069-0.12-0.068-0.194c0.006-0.544,0.057-2.936,0.499-3.29
	c0.5-0.4,13.1-1.2,22.3-8.5s14.4-18,14.4-27c0-8.637-2.486-11.011-2.687-11.189c-0.01-0.009-0.019-0.015-0.03-0.023l-10.215-6.744
	c-0.045-0.03-0.09-0.053-0.142-0.07c-1.593-0.541-3.987-1.245-6.974-1.705c-1.641-0.253-2.88-0.342-3.688-0.398
	c-8.866-0.618-13.299-0.927-18.468-1.021c-2.201-0.04-5.532-0.097-9.787,0c-5.316,0.121-12.347,0.489-20.673,1.508
	C34.917,39.385,34.701,39.457,34.51,39.567z"/>
<path style="fill:#B9CED3;" d="M65.3,94.8c0,0-0.2,4.3,0.1,5.9c0.4,1.6,2.2,4.3,1.6,5.6c-0.6,1.4-3.2,1.9-7.1,1.3
	c-6.2-0.9-3.7-4.3-4.5-3.4c-1.8,2.1,2.3,5.9,8.5,5.8c5.6-0.1,8.5-2.3,8.6-3.8c0-1.6-1.1-2.4-1.6-4.2c-0.4-1.8-0.3-4.2-0.3-4.2
	s20,1.7,20.1,10.3s-9.8,13.8-27.3,13.5c-11.6-0.2-26.3-3.9-26.2-12.5S56.8,98,56.8,98l0.8-0.1V96c0-0.5-0.1-1.5-0.1-1.5
	s1.8,0.4,3.9,0.4C63.4,94.9,65.3,94.9,65.3,94.8z"/>
<path style="fill:#BBCED3;" d="M48.6,73.3l-19.3-6.8l-8-13.5l-1.4-3.9c0,0-3.3,8.4,0.2,18.7s17.4,24.1,42.6,24.1
	C87,91.9,98,80,101.1,74.8c6.3-10.3,6.1-20.3,6.1-20.3l-3.9,5.6l-7.8,7.4l-11.1,5l-18.3,2.9C66.1,75.4,48.6,73.3,48.6,73.3z"/>
<path style="fill:#FFFFFD;" d="M23.3,67.4c-1.2,0.5,1,6.9,7.6,12.4S44.8,88,45.6,87s-8.2-5.9-11.5-8.9
	C28.5,73.2,24.8,66.7,23.3,67.4z"/>
<path style="fill:#FFFFFD;" d="M55.4,104.5c0.3,2.4,2.9,2.5,3.6,2.2c0.6-0.3,1.4-3.9,1.4-6.2s-0.7-4.8-1.7-4.9c-1-0.2-0.5,4-1,5.5
	C57,102.5,55.2,103.6,55.4,104.5z"/>
<path style="fill:#DFEEF5;" d="M64.2,77.1c-0.5,0-0.9,0-1.4,0c-23-0.3-33.3-7.2-38.3-12.5c-3.6-3.8-5.5-8-5.3-12.5
	c0.373-8.397,11.686-13.866,17.434-15.279C57.892,31.596,77.298,33.383,88.1,36.4c-0.133,1.1-0.267,2.2-0.4,3.3
	c-2.379-0.245-5.904-0.576-10.182-0.859c-14.729-0.974-24.035-0.407-26.214-0.281c-13.707,0.793-17.436,2.718-20.267,4.502
	c-1.667,1.05-7.197,4.849-7.337,9.738c-0.1,3.5,1,6,3.8,8.9c6.3,6.7,19.4,10.9,36.2,11.2C90.7,73.3,102.5,61,103,54
	c0.4-6.1-7.6-12.2-15.3-14.3l0.4-3.3c9.2,2.5,19.2,8.8,19.1,17.2C107.1,64.2,93.3,77.1,64.2,77.1z"/>
<path style="fill:#DFEEF5;" d="M90.532,28.574"/>
</svg>
