<?xml version="1.0" encoding="utf-8"?>
<!-- Generator: Adobe Illustrator 26.0.0, SVG Export Plug-In . SVG Version: 6.00 Build 0)  -->
<svg version="1.1" id="Laag_1" xmlns="http://www.w3.org/2000/svg" xmlns:xlink="http://www.w3.org/1999/xlink" x="0px" y="0px"
	 viewBox="0 0 128 128" style="enable-background:new 0 0 128 128;" xml:space="preserve">
<style type="text/css">
	.st0{fill:#6FA3B0;}
	.st1{fill:#B9CED3;}
	.st2{fill:#BBCED3;}
	.st3{fill:#FFFFFD;}
	.st4{fill:#DFEEF5;}
	.st5{fill:#FEA9A6;}
	.st6{fill:#FE7C84;}
	.st7{fill:#FFEBCA;}
	.st8{fill:#EAC183;}
	.st9{fill:#865C50;}
	.st10{fill:#6C4D42;}
</style>
<path class="st0" d="M34.8,39.4l-10.1,5.8l-4.2,10.7c0,0,1.2,15.9,4.8,20.6c5.2,6.6,11.1,13.3,31.2,17.7c5.8,1.3,5.3,4.3,0.5,5.9
	c-3.1,1-10.8,1.1-10.8,1.1c-8.2,3-9.4,6.1-9.4,8.7s0.9,9.2,15.1,12.9c11.1,3,26.2,1.5,32.7-2.6c6.6-4.1,7.1-8.8,7-10.6
	c-0.1-1.8-1.2-5.1-4.6-6.8c-1.5-0.8-5.8,1-9.2,0.1c-4.1-1.1-7.2-5-7.2-5s0-3,0.5-3.4s13.1-1.2,22.3-8.5s14.4-18,14.4-27
	s-2.7-11.2-2.7-11.2L94.8,41C94.8,41,34.8,39.4,34.8,39.4z"/>
<path class="st1" d="M65.3,94.8c0,0-0.2,4.3,0.1,5.9c0.4,1.6,2.2,4.3,1.6,5.6c-0.6,1.4-3.2,1.9-7.1,1.3c-6.2-0.9-3.7-4.3-4.5-3.4
	c-1.8,2.1,2.3,5.9,8.5,5.8c5.6-0.1,8.5-2.3,8.6-3.8c0-1.6-1.1-2.4-1.6-4.2c-0.4-1.8-0.3-4.2-0.3-4.2s20,1.7,20.1,10.3
	s-9.8,13.8-27.3,13.5c-11.6-0.2-26.3-3.9-26.2-12.5s19.6-11.1,19.6-11.1l0.8-0.1v-1.9c0-0.5-0.1-1.5-0.1-1.5s1.8,0.4,3.9,0.4
	C63.4,94.9,65.3,94.9,65.3,94.8z"/>
<path class="st2" d="M48.6,73.3l-19.3-6.8l-8-13.5l-1.4-3.9c0,0-3.3,8.4,0.2,18.7s17.4,24.1,42.6,24.1c24.3,0,35.3-11.9,38.4-17.1
	c6.3-10.3,6.1-20.3,6.1-20.3l-3.9,5.6l-7.8,7.4l-11.1,5l-18.3,2.9C66.1,75.4,48.6,73.3,48.6,73.3z"/>
<path class="st3" d="M23.3,67.4c-1.2,0.5,1,6.9,7.6,12.4S44.8,88,45.6,87c0.8-1-8.2-5.9-11.5-8.9C28.5,73.2,24.8,66.7,23.3,67.4z"/>
<path class="st3" d="M55.4,104.5c0.3,2.4,2.9,2.5,3.6,2.2c0.6-0.3,1.4-3.9,1.4-6.2s-0.7-4.8-1.7-4.9c-1-0.2-0.5,4-1,5.5
	C57,102.5,55.2,103.6,55.4,104.5z"/>
<path class="st4" d="M64.2,77.1c-0.5,0-0.9,0-1.4,0c-23-0.3-33.3-7.2-38.3-12.5c-3.6-3.8-5.5-8-5.3-12.5
	c0.5-11.6,17.6-15.3,18.3-15.5l0.8,3.1c-0.2,0-14.3,4.6-14.6,13.1c-0.1,3.5,1,6,3.8,8.9c6.3,6.7,19.4,10.9,36.2,11.2
	C90.7,73.3,102.5,61,103,54c0.4-6.1-7.6-12.2-15.3-14.3l0.4-3.3c9.2,2.5,19.2,8.8,19.1,17.2C107.1,64.2,93.3,77.1,64.2,77.1z"/>
<path class="st5" d="M42.2,36.2l-4.7,0.3c0,0-1.3-3.4,0.4-5.4s4.4-1.7,4.4-1.7s-0.9-8.4,4.1-15.7s12.4-12,24.2-9.3
	c12.6,2.9,16.4,15.2,16.4,15.2l-2.3,12.1l-22.4,9.8L42.2,36.2z"/>
<path class="st6" d="M54.8,37.4c0,0,3.8,1.1,7.3-1.2c2.3-1.5,2.8-3.2,2.8-3.2s7.5,1,12.8-2.8s8.7-12.6,8.7-12.6s1.7,3.5,2.3,8.3
	c0.4,3.5-0.2,5.7-0.2,5.7s3-0.8,4.6,3c1.6,3.6-0.3,6.3-0.3,6.3L57,44.5C57,44.5,54.8,37.4,54.8,37.4z"/>
<path class="st6" d="M74.5,19.6c-0.8-0.2-1.5,0.6-1.6,1.3c-0.1,0.7,0.1,1.6,1.1,1.9c1,0.2,1.4-0.8,1.5-1.6
	C75.6,20.4,75.2,19.8,74.5,19.6z"/>
<path class="st6" d="M57.7,19.1c-0.9-0.2-1.6,0.6-1.7,1.4c-0.1,0.8,0,1.8,1.1,2c1.2,0.1,1.7-0.9,1.7-1.7
	C58.8,20,58.5,19.4,57.7,19.1z"/>
<path class="st6" d="M81.2,13.8c-0.8-0.4-1.4,0.1-1.8,0.5c-0.4,0.4-0.6,1.6,0.1,2c0.8,0.5,1.6,0,1.9-0.6
	C81.8,15,81.8,14.2,81.2,13.8z"/>
<path class="st6" d="M62,11.9c-0.6-0.6-1.4-0.4-2,0.3c-0.5,0.7-0.5,1.6,0,2.1c0.7,0.6,1.8,0,2.1-0.6C62.5,13,62.4,12.3,62,11.9z"/>
<path class="st6" d="M51.8,23.8c-0.7-0.5-1.6-0.1-2,0.7c-0.4,0.8-0.2,1.7,0.4,2c0.9,0.5,1.9-0.3,2.1-1
	C52.5,24.9,52.3,24.1,51.8,23.8z"/>
<path class="st7" d="M68.1,42.4c0-0.3,6.3-6.5,15.7-5.7c11.5,0.9,15.6,9.1,15.6,9.1l-0.7,9.5l-8,10.2c0,0-10.2,3-10.5,3
	s-14.1,1.2-14.1,1.2l-2.8-23.2C63.3,46.5,68.1,42.4,68.1,42.4z"/>
<path class="st8" d="M67.7,67.7c0.1,0.2,16.3,0.1,24.3-8.7c8.1-8.9,6.2-15.3,6.2-15.1c0.1,0.2,2.2,2.5,3.4,7.5
	c0.7,3.1,0.5,6.1,0.5,6.1s-3.4,7.5-14.1,11.7c-12.8,4.9-24.8,3.7-24.8,3.7L67.7,67.7z"/>
<path class="st8" d="M86.6,51c-0.8-0.5-1.7,0-2.2,0.8c-0.6,0.8-0.4,1.8,0.4,2.3c0.8,0.4,1.7-0.1,2.2-1C87.3,52.5,87.5,51.5,86.6,51z
	"/>
<path class="st9" d="M62.3,68.2l8-6.3l-0.2-12.1l3.8-5.8c0,0-0.4-3.5-3.2-4.7c-2.9-1.3-6,1-6,1s-7.6-8.6-19.6-6.8
	C34,35,28.9,41.8,26.8,46.7c-1.7,3.9-1,10.9-1,10.9l6.2,6.1c0,0,16.2,4.7,18.5,5.1S62.3,68.2,62.3,68.2z"/>
<path class="st10" d="M48.3,62.5c0,0,8,4.3,13.6,1.8s7.1-7.6,6.7-9.9c-0.3-2.4-0.9-4.5-0.9-4.5s2.4-1.8,3.7-3.7s1.4-5.1,1.4-5.1
	s2.2,2.9,1.6,7.5c-0.5,3.6-2.7,5.4-2.7,5.4s3.1,2.9,1.6,8.4C72,67.6,67.3,69,67.3,69s0.5,1.1,0.4,2.1s-0.5,1.8-0.5,1.8
	s-15.6,0.8-26.9-3.5C28.5,64.8,26,59.7,26,59.7s-0.3-3.1-0.2-2.8c0.1,0.2,5.5,5.9,12.4,6.9S48.3,62.6,48.3,62.5z"/>
<path class="st10" d="M40.4,51.5c-0.9-0.8-2.1-0.2-2.6,0.5c-0.5,0.6-0.8,1.9,0,2.6c1,0.8,2.1,0.1,2.5-0.5
	C40.8,53.4,41.1,52.1,40.4,51.5z"/>
<path class="st10" d="M41.9,41.7c-0.8,1.2,0,2.3,0.6,2.6c0.8,0.4,1.8-0.1,2.3-1s0.5-1.8-0.5-2.4C43.4,40.4,42.4,41,41.9,41.7z"/>
<path class="st10" d="M54.4,52c-1.1-0.6-1.9,0.3-2.3,1s-0.6,1.9,0.6,2.5c1.2,0.6,2.1-0.5,2.3-1C55.4,53.7,55.4,52.6,54.4,52z"/>
</svg>
